<svg height="456pt" viewBox="0 -4 456 456" width="456pt" xmlns="http://www.w3.org/2000/svg"><path d="m424 256c0 4.417969-3.582031 8-8 8s-8-3.582031-8-8 3.582031-8 8-8 8 3.582031 8 8zm0 0"/><path d="m424 216.800781v-30.722656c0-40.078125-30.480469-72.71875-68-72.71875-36.398438 0-66.878906 31.601563-68 70.5625l.480469.078125h-.480469v157.679688c0 50.320312-37.679688 91.28125-84 91.28125s-84-40.960938-84-91.28125v-21.679688c8.800781 0 16-7.199219 16-24v-26.398438c2.71875-.5625 5.359375-1.203124 8-1.921874 46.320312-12.640626 80-52.160157 80-99.039063v-8.640625h-8l-.398438-112.078125c-.054687-19.296875-13.890624-35.792969-32.882812-39.203125-2.945312-.34375-5.910156-.53125-8.878906-.558594-2.792969-5.027344-8.089844-8.1523435-13.839844-8.160156-7.734375-.015625-14.375 5.5-15.769531 13.105469-1.398438 7.609375 2.84375 15.125 10.078125 17.859375s15.386718-.09375 19.371094-6.726563c2.867187.078125 5.726562.34375 8.558593.800781 10.242188 2.90625 17.320313 12.238282 17.363281 22.882813l.398438 112.078125h-8v8.878906c-.625 31.320313-21.523438 58.601563-51.601562 67.359375-7.757813 2.488281-15.851563 3.753907-24 3.761719h-.398438c-8.277344 0-16.507812-1.269531-24.398438-3.761719-30-9.519531-59.601562-36.078125-59.601562-67.359375v-8.878906h-8v-112c.042969-10.808594 7.320312-20.246094 17.761719-23.039062 2.832031-.460938 5.691406-.730469 8.558593-.800782 2.839844 4.859375 8.050782 7.84375 13.679688 7.839844 8.835938 0 16-7.164062 16-16s-7.164062-16-16-16c-5.75.0078125-11.046875 3.132812-13.839844 8.160156-2.96875.027344-5.933594.214844-8.878906.558594-19.1875 3.226562-33.25 19.824219-33.28125 39.28125v112h-8v8.640625c0 46.878906 33.679688 86.398437 80 99.039063 2.640625.71875 5.28125 1.359374 8 1.921874v26.398438c0 16.800781 7.199219 24 16 24v21.679688c0 59.121093 44.878906 107.28125 100 107.28125s100-48.160157 100-107.28125v-157.28125c.375-14.492188 6.039062-28.347657 15.921875-38.957032 9.285156-10.117187 22.347656-15.9375 36.078125-16.082031 28.640625 0 52 25.441406 52 56.71875v30.722656c-20.121094 4.105469-33.863281 22.78125-31.796875 43.210938 2.0625 20.429687 19.261719 35.980469 39.796875 35.980469s37.734375-15.550782 39.796875-35.980469c2.066406-20.429688-11.675781-39.105469-31.796875-43.210938zm-8 63.199219c-13.253906 0-24-10.746094-24-24s10.746094-24 24-24 24 10.746094 24 24c-.039062 13.238281-10.761719 23.960938-24 24zm0 0"/></svg>